<svg width="24" height="24" viewBox="0 0 24 24" fill="none" xmlns="http://www.w3.org/2000/svg">
<g clip-path="url(#clip0_245_1968)">
<mask id="mask0_245_1968" style="mask-type:luminance" maskUnits="userSpaceOnUse" x="2" y="2" width="20" height="20">
<path d="M22 2H2V21.5918H22V2Z" fill="white"/>
</mask>
<g mask="url(#mask0_245_1968)">
<path d="M10.457 16.1602C7.8789 15.8477 6.06249 13.9922 6.06249 11.5898C6.06249 10.6133 6.41406 9.55859 7 8.85547C6.7461 8.21094 6.78516 6.84375 7.07812 6.27735C7.85937 6.17969 8.91406 6.58984 9.53906 7.15624C10.2812 6.92188 11.0625 6.80469 12.0195 6.80469C12.9766 6.80469 13.7578 6.92188 14.4609 7.13671C15.0664 6.58984 16.1406 6.17969 16.9219 6.27735C17.1953 6.80469 17.2344 8.17188 16.9805 8.83594C17.6055 9.57812 17.9375 10.5742 17.9375 11.5898C17.9375 13.9922 16.1211 15.8086 13.5039 16.1406C14.168 16.5703 14.6172 17.5078 14.6172 18.582V20.6133C14.6172 21.1992 15.1055 21.5312 15.6914 21.2969C19.2266 19.9492 22 16.4141 22 12.0391C22 6.51171 17.5078 2 11.9805 2C6.45312 2 2 6.51171 2 12.0391C2 16.375 4.7539 19.9688 8.46484 21.3164C8.99218 21.5117 9.5 21.1602 9.5 20.6328V19.0703C9.22657 19.1875 8.875 19.2656 8.56249 19.2656C7.27343 19.2656 6.51171 18.5625 5.96484 17.2539C5.75 16.7266 5.51563 16.4141 5.06641 16.3555C4.83204 16.3359 4.7539 16.2383 4.7539 16.1211C4.7539 15.8867 5.14453 15.7109 5.53516 15.7109C6.10157 15.7109 6.58984 16.0625 7.09765 16.7852C7.48829 17.3516 7.89843 17.6055 8.38671 17.6055C8.875 17.6055 9.18749 17.4297 9.63671 16.9805C9.96876 16.6484 10.2227 16.3555 10.457 16.1602Z" fill="#7C7C7C"/>
</g>
</g>
<defs>
<clipPath id="clip0_245_1968">
<rect width="20" height="19.5918" fill="white" transform="translate(2 2)"/>
</clipPath>
</defs>
</svg>
