<svg width="24" height="24" viewBox="0 0 24 24" fill="none" xmlns="http://www.w3.org/2000/svg">
<path fill-rule="evenodd" clip-rule="evenodd" d="M11.75 21.3103C17.1348 21.3103 21.5 16.9876 21.5 11.6552C21.5 6.32277 17.1348 2 11.75 2C6.36522 2 2 6.32277 2 11.6552C2 13.3868 2.46034 15.012 3.26644 16.4172L2 21.3103L7.09428 20.1406C8.47774 20.8865 10.0639 21.3103 11.75 21.3103ZM11.75 19.5774C16.1683 19.5774 19.75 16.0305 19.75 11.6552C19.75 7.27987 16.1683 3.73298 11.75 3.73298C7.33172 3.73298 3.75 7.27987 3.75 11.6552C3.75 13.3445 4.28395 14.9103 5.19384 16.1962L4.47727 18.8572L7.21177 18.1802C8.50126 19.0614 10.0648 19.5774 11.75 19.5774Z" fill="#7C7C7C"/>
<path d="M9.31251 7.17242C9.0807 6.71133 8.72508 6.75215 8.36583 6.75215C7.72378 6.75215 6.72266 7.51373 6.72266 8.93109C6.72266 10.0927 7.23954 11.3642 8.98129 13.2664C10.6622 15.1021 12.8708 16.0517 14.7044 16.0194C16.538 15.987 16.9152 14.4245 16.9152 13.8969C16.9152 13.663 16.7686 13.5463 16.6677 13.5146C16.0428 13.2176 14.8904 12.6643 14.6282 12.5604C14.366 12.4564 14.2291 12.597 14.144 12.6735C13.9062 12.8979 13.4348 13.5592 13.2734 13.708C13.1121 13.8567 12.8714 13.7815 12.7713 13.7252C12.4029 13.5788 11.4038 13.1388 10.6075 12.3743C9.62264 11.4289 9.56484 11.1036 9.37929 10.8141C9.23085 10.5825 9.33978 10.4403 9.39413 10.3782C9.60632 10.1358 9.89931 9.76146 10.0307 9.57544C10.1621 9.38942 10.0578 9.10699 9.9952 8.93109C9.72602 8.17457 9.49797 7.54129 9.31251 7.17242Z" fill="#7C7C7C"/>
</svg>
