<svg width="100" height="100" viewBox="0 0 100 100" fill="none" xmlns="http://www.w3.org/2000/svg">
<path d="M42.4831 74.2223C41.678 69.2127 45.3243 68.5379 48.5266 68.0542C50.7798 67.7134 54.4959 68.4449 54.8373 70.3034C55.1786 72.1619 51.4283 74.9474 52.1629 77.3153C56.7837 80.9353 62.3098 77.0577 63.1627 71.4625C62.9354 55.276 36.2732 54.7965 36.0731 72.5827C35.7021 76.0261 37.455 80.4642 39.2124 83.2858C38.0396 83.9367 35.9388 84.5642 34.6136 84.8912C28.7306 86.3433 28.4022 79.5553 28.3638 75.162C28.3211 70.2726 29.375 65.481 31.8947 61.4911C43.6391 43.3333 65.647 52.3721 69.201 66.1971C74.0305 84.9836 46.7477 94.4814 42.4831 74.2223Z" fill="#0000CC"/>
<path d="M63.993 4.83504C64.1041 5.13995 64.0009 5.90921 64.0103 6.26417C64.091 9.408 63.3913 12.442 63.0324 15.532C61.6819 26.9235 59.6961 33.7802 57.7955 44.9009C56.6043 45.9303 53.0345 46.4099 51.1265 45.5778C48.0443 44.2336 48.6893 44.0051 48.6526 42.9284C48.3263 33.3555 49.5703 25.6215 50.1499 15.3761C50.4238 11.4343 50.5715 8.36792 51.1688 4.87364C51.369 3.702 51.4279 3.35726 52.3339 1.5377C56.5968 -1.04785 61.5964 2.89197 63.993 4.83504Z" fill="#0000CC"/>
<path d="M79.4656 65.4485C84.2285 69.7559 77.4695 84.8977 74.3349 89.3262C69.7204 95.8456 63.0268 99.2237 52.8448 98.5018C46.755 98.07 41.0045 96.7192 34.5932 91.0979C35.8884 88.8989 40.8119 86.2598 43.2878 86.921C44.2836 87.1871 45.0447 87.9504 45.9249 88.4422C61.0468 94.6466 72.239 86.6702 73.842 70.1085C73.6142 68.0836 72.3384 65.8085 72.361 63.9408C73.3924 62.49 78.3337 64.6793 79.4656 65.4485Z" fill="#0000CC"/>
<path d="M83.8929 16.6564C86.3778 18.0232 86.7466 18.0834 86.5799 21.0426C84.7695 28.6587 78.9136 38.0246 72.7922 46.6754C71.3632 48.6949 69.0323 51.9683 66.7478 50.8038C60.9249 47.836 62.5539 48.181 66.6727 38.1229C70.7914 28.0647 76.113 19.4602 77.961 16.3982C79.8089 13.3362 80.0393 14.5368 83.8929 16.6564Z" fill="#0000CC"/>
<path d="M34.0071 11.5212C36.4075 13.678 41.3972 36.691 42.6663 43.8878C43.0648 46.1476 39.0399 47.9085 36.5056 47.1119C33.9713 46.3153 32.592 39.5969 28.8484 31.8906C25.1048 24.1843 23.7073 19.2032 24.5045 15.667C25.3017 12.1308 31.6067 9.36443 34.0071 11.5212Z" fill="#0000CC"/>
<path d="M2.07713 55.1225C3.40033 54.9037 4.41831 54.8175 5.76354 54.8938C7.08384 54.9743 8.38258 55.1909 9.63232 55.5389C10.841 55.8813 18.3259 58.9682 18.6327 59.6587C20.7442 64.4095 21.6709 69.7269 22.9735 74.7139C23.3597 76.1924 23.9986 78.1002 23.8079 79.7411C22.3561 81.9539 22.9091 81.1805 21.2276 81.4671C20.8403 81.3964 20.1158 81.2709 19.8246 81.1007C13.8397 77.6058 7.81249 69.2302 3.97671 63.8463C3.21991 62.7662 2.50541 61.6642 1.83429 60.5407C0.807054 58.8196 -1.38266 55.8151 2.07713 55.1225Z" fill="#0000CC"/>
<path d="M95.2555 32.7804C96.9145 34.6951 100.456 36.5375 98.1539 40.6277C95.8518 44.718 92.0479 48.6181 88.5182 51.9556C84.9884 55.293 83.6272 56.3705 79.6858 58.7067L77.9174 59.0303C76.1526 58.1391 76.1558 58.0493 74.9621 56.3258C75.0708 54.6134 75.7468 54.1347 76.7162 52.7271C80.9273 46.6104 86.8404 39.4994 88.2838 38.0366C89.7272 36.5738 93.8549 32.9418 95.2555 32.7804Z" fill="#0000CC"/>
</svg>
