<svg width="50" height="50" viewBox="0 0 50 50" fill="none" xmlns="http://www.w3.org/2000/svg">
<path d="M21.2416 37.1111C20.839 34.6063 22.6622 34.2689 24.2633 34.0271C25.3899 33.8567 27.2479 34.2225 27.4186 35.1517C27.5893 36.0809 25.7141 37.4737 26.0815 38.6576C28.3918 40.4676 31.1549 38.5288 31.5813 35.7312C31.4677 27.638 18.1366 27.3982 18.0366 36.2914C17.8511 38.013 18.7275 40.2321 19.6062 41.6429C19.0198 41.9683 17.9694 42.2821 17.3068 42.4456C14.3653 43.1716 14.2011 39.7776 14.1819 37.581C14.1606 35.1363 14.6875 32.7405 15.9473 30.7455C21.8196 21.6666 32.8235 26.186 34.6005 33.0986C37.0152 42.4918 23.3739 47.2407 21.2416 37.1111Z" fill="#0000CC"/>
<path d="M31.9964 2.41752C32.0519 2.56997 32.0003 2.95461 32.005 3.13209C32.0454 4.704 31.6955 6.22098 31.5161 7.766C30.8408 13.4618 29.8479 16.8901 28.8976 22.4505C28.302 22.9651 26.5172 23.205 25.5631 22.7889C24.022 22.1168 24.3445 22.0025 24.3262 21.4642C24.163 16.6777 24.7851 12.8108 25.0748 7.68804C25.2118 5.71716 25.2856 4.18396 25.5843 2.43682C25.6844 1.851 25.7138 1.67863 26.1668 0.768852C28.2983 -0.523925 30.7981 1.44599 31.9964 2.41752Z" fill="#0000CC"/>
<path d="M39.7328 32.7242C42.1142 34.878 38.7347 42.4489 37.1674 44.6631C34.8602 47.9228 31.5134 49.6119 26.4224 49.2509C23.3775 49.035 20.5022 48.3596 17.2966 45.549C17.9442 44.4495 20.406 43.1299 21.6439 43.4605C22.1418 43.5936 22.5223 43.9752 22.9624 44.2211C30.5234 47.3233 36.1195 43.3351 36.921 35.0542C36.8071 34.0418 36.1692 32.9043 36.1805 31.9704C36.6962 31.245 39.1668 32.3397 39.7328 32.7242Z" fill="#0000CC"/>
<path d="M41.9463 8.32819C43.1888 9.01159 43.3732 9.04168 43.2899 10.5213C42.3847 14.3293 39.4567 19.0123 36.396 23.3377C35.6815 24.3474 34.5161 25.9841 33.3738 25.4019C30.4624 23.918 31.2768 24.0905 33.3362 19.0614C35.3956 14.0324 38.0564 9.73008 38.9804 8.19909C39.9043 6.66809 40.0195 7.2684 41.9463 8.32819Z" fill="#0000CC"/>
<path d="M17.0034 5.76062C18.2036 6.839 20.6985 18.3455 21.333 21.9439C21.5323 23.0738 19.5198 23.9543 18.2527 23.5559C16.9855 23.1576 16.2959 19.7984 14.4241 15.9453C12.5523 12.0922 11.8535 9.60159 12.2521 7.83352C12.6507 6.06544 15.8032 4.68223 17.0034 5.76062Z" fill="#0000CC"/>
<path d="M1.03856 27.5613C1.70016 27.4518 2.20915 27.4088 2.88177 27.4469C3.54192 27.4872 4.19129 27.5955 4.81616 27.7695C5.42052 27.9407 9.16295 29.4841 9.31637 29.8294C10.3721 32.2048 10.8354 34.8635 11.4867 37.3569C11.6798 38.0962 11.9993 39.0501 11.904 39.8706C11.178 40.9769 11.4546 40.5903 10.6138 40.7336C10.4201 40.6982 10.0579 40.6354 9.91229 40.5504C6.91984 38.8029 3.90625 34.6151 1.98835 31.9232C1.60996 31.3831 1.2527 30.8321 0.917144 30.2704C0.403527 29.4098 -0.691329 27.9076 1.03856 27.5613Z" fill="#0000CC"/>
<path d="M47.6278 16.3902C48.4572 17.3475 50.228 18.2687 49.0769 20.3139C47.9259 22.359 46.0239 24.3091 44.2591 25.9778C42.4942 27.6465 41.8136 28.1853 39.8429 29.3534L38.9587 29.5151C38.0763 29.0696 38.0779 29.0247 37.481 28.1629C37.5354 27.3067 37.8734 27.0673 38.3581 26.3636C40.4636 23.3052 43.4202 19.7497 44.1419 19.0183C44.8636 18.2869 46.9274 16.4709 47.6278 16.3902Z" fill="#0000CC"/>
</svg>
