<svg width="140" height="25" viewBox="0 0 140 25" fill="none" xmlns="http://www.w3.org/2000/svg">
<path d="M36.6843 6.25V18.4602H34.3816V6.25H36.6843ZM40.483 6.25V8.0698H30.625V6.25H40.483Z" fill="#05059E"/>
<path d="M45.1641 18.628C44.4749 18.628 43.8558 18.5162 43.3068 18.2925C42.7577 18.0689 42.2899 17.7586 41.9033 17.3617C41.5223 16.9591 41.2282 16.4923 41.0209 15.9612C40.8192 15.4245 40.7183 14.8486 40.7183 14.2336V13.8982C40.7183 13.1993 40.8192 12.5648 41.0209 11.9945C41.2226 11.4187 41.5083 10.9239 41.8781 10.5102C42.2479 10.0965 42.6905 9.77778 43.2059 9.55415C43.7214 9.33052 44.2901 9.2187 44.912 9.2187C45.5563 9.2187 46.1249 9.32772 46.618 9.54576C47.111 9.75821 47.5228 10.0601 47.8534 10.4515C48.1839 10.8428 48.4333 11.3124 48.6014 11.8603C48.7694 12.4026 48.8535 13.0037 48.8535 13.6634V14.5942H41.7268V13.0679H46.6684V12.9002C46.6572 12.548 46.59 12.2265 46.4667 11.9358C46.3435 11.6395 46.153 11.4047 45.8952 11.2314C45.6375 11.0525 45.3041 10.963 44.8951 10.963C44.5646 10.963 44.276 11.0357 44.0295 11.1811C43.7886 11.3208 43.5869 11.5221 43.4244 11.7849C43.2676 12.042 43.1499 12.3495 43.0715 12.7073C42.993 13.0652 42.9538 13.4621 42.9538 13.8982V14.2336C42.9538 14.6138 43.0042 14.966 43.1051 15.2903C43.2115 15.6145 43.3656 15.8969 43.5673 16.1373C43.7746 16.3721 44.0211 16.5566 44.3069 16.6908C44.5982 16.8194 44.9288 16.8837 45.2985 16.8837C45.7636 16.8837 46.1838 16.7942 46.5592 16.6153C46.9401 16.4308 47.2707 16.1596 47.5508 15.8018L48.6686 16.9591C48.4781 17.2387 48.2204 17.507 47.8954 17.7642C47.5761 18.0214 47.1895 18.231 46.7356 18.3932C46.2818 18.5497 45.758 18.628 45.1641 18.628Z" fill="#05059E"/>
<path d="M52.5513 11.2482V18.4602H50.3326V9.38642H52.4252L52.5513 11.2482ZM52.2235 13.5963H51.5428C51.5428 12.9645 51.6184 12.3831 51.7697 11.852C51.9266 11.3208 52.1563 10.8596 52.4588 10.4682C52.7614 10.0713 53.134 9.7638 53.5766 9.54576C54.0248 9.32772 54.543 9.2187 55.1313 9.2187C55.5403 9.2187 55.9157 9.2802 56.2575 9.4032C56.5992 9.5206 56.8934 9.70789 57.1399 9.96507C57.392 10.2167 57.5853 10.5465 57.7198 10.9546C57.8543 11.3572 57.9215 11.8408 57.9215 12.4054V18.4602H55.7028V12.6319C55.7028 12.207 55.6412 11.8743 55.5179 11.6339C55.4003 11.3935 55.2294 11.2258 55.0053 11.1307C54.7812 11.0301 54.5122 10.9798 54.1985 10.9798C53.8511 10.9798 53.5514 11.0497 53.2992 11.1894C53.0527 11.3236 52.8482 11.5109 52.6857 11.7513C52.5289 11.9917 52.4112 12.2685 52.3328 12.5816C52.2599 12.8946 52.2235 13.2329 52.2235 13.5963ZM57.7534 13.1854L56.8374 13.3531C56.843 12.7828 56.9214 12.2489 57.0727 11.7513C57.2239 11.2482 57.4453 10.8093 57.7366 10.4347C58.0335 10.0545 58.4005 9.75821 58.8375 9.54576C59.2801 9.32772 59.79 9.2187 60.3671 9.2187C60.8153 9.2187 61.2187 9.28299 61.5773 9.41158C61.9414 9.53458 62.2524 9.73305 62.5101 10.007C62.7678 10.2754 62.9639 10.6248 63.0984 11.0553C63.2385 11.4858 63.3085 12.0113 63.3085 12.6319V18.4602H61.073V12.6235C61.073 12.1818 61.0114 11.8436 60.8881 11.6088C60.7705 11.3739 60.5996 11.2118 60.3755 11.1224C60.1514 11.0273 59.888 10.9798 59.5855 10.9798C59.2773 10.9798 59.0084 11.0385 58.7787 11.1559C58.5546 11.2677 58.3641 11.4243 58.2072 11.6255C58.056 11.8268 57.9411 12.0616 57.8627 12.33C57.7898 12.5927 57.7534 12.8779 57.7534 13.1854Z" fill="#05059E"/>
<path d="M70.3091 16.5314V12.3467C70.3091 12.0392 70.2559 11.7737 70.1494 11.5501C70.043 11.3264 69.8805 11.1531 69.662 11.0301C69.4435 10.9071 69.1662 10.8456 68.83 10.8456C68.5331 10.8456 68.2725 10.8959 68.0484 10.9966C67.8299 11.0972 67.6618 11.2398 67.5442 11.4243C67.4265 11.6032 67.3677 11.81 67.3677 12.0448H65.1406C65.1406 11.6703 65.2302 11.3152 65.4095 10.9798C65.5888 10.6388 65.8437 10.3369 66.1743 10.0741C66.5105 9.80573 66.9111 9.59608 67.3761 9.44513C67.8467 9.29418 68.3734 9.2187 68.9561 9.2187C69.6452 9.2187 70.2587 9.33611 70.7966 9.57092C71.34 9.80014 71.7658 10.1468 72.074 10.6108C72.3877 11.0748 72.5446 11.6591 72.5446 12.3635V16.3218C72.5446 16.7746 72.5726 17.1632 72.6286 17.4875C72.6903 17.8061 72.7799 18.0829 72.8976 18.3177V18.4602H70.6369C70.5304 18.231 70.4492 17.9403 70.3932 17.5881C70.3371 17.2303 70.3091 16.8781 70.3091 16.5314ZM70.6201 12.9338L70.6369 14.2504H69.2334C68.886 14.2504 68.5807 14.2867 68.3173 14.3594C68.054 14.4265 67.8383 14.5271 67.6702 14.6613C67.5022 14.7899 67.3761 14.9464 67.292 15.1309C67.208 15.3098 67.166 15.5139 67.166 15.7431C67.166 15.9668 67.2164 16.168 67.3173 16.3469C67.4237 16.5258 67.575 16.6684 67.7711 16.7746C67.9728 16.8753 68.2081 16.9256 68.477 16.9256C68.8692 16.9256 69.211 16.8473 69.5023 16.6908C69.7937 16.5286 70.0206 16.333 70.1831 16.1037C70.3455 15.8745 70.4324 15.6565 70.4436 15.4496L71.0823 16.4056C71.0039 16.6349 70.8862 16.8781 70.7293 17.1352C70.5724 17.3924 70.3707 17.6328 70.1242 17.8564C69.8777 18.0801 69.5808 18.2646 69.2334 18.4099C68.886 18.5553 68.4826 18.628 68.0232 18.628C67.4349 18.628 66.9083 18.5106 66.4432 18.2758C65.9782 18.0409 65.6112 17.7195 65.3423 17.3113C65.0734 16.9032 64.9389 16.4392 64.9389 15.9192C64.9389 15.4384 65.0285 15.0135 65.2078 14.6445C65.3871 14.2756 65.6533 13.9653 66.0062 13.7137C66.3592 13.4565 66.7962 13.2636 67.3173 13.135C67.8439 13.0009 68.4462 12.9338 69.1241 12.9338H70.6201Z" fill="#05059E"/>
<path d="M76.7214 11.3236V18.4602H74.5028V9.38642H76.587L76.7214 11.3236ZM76.3685 13.5963H75.7129C75.7186 12.9366 75.8082 12.3384 75.9819 11.8016C76.1556 11.2649 76.3993 10.8037 76.713 10.4179C77.0324 10.0322 77.4106 9.73585 77.8476 9.52899C78.2846 9.32213 78.772 9.2187 79.3099 9.2187C79.7469 9.2187 80.1419 9.2802 80.4949 9.4032C80.8478 9.52619 81.1504 9.72187 81.4025 9.99023C81.6602 10.2586 81.8563 10.6108 81.9908 11.0469C82.1309 11.4774 82.2009 12.0085 82.2009 12.6403V18.4602H79.9654V12.6235C79.9654 12.2098 79.9038 11.8827 79.7805 11.6423C79.6629 11.4019 79.4892 11.2314 79.2595 11.1307C79.0354 11.0301 78.758 10.9798 78.4275 10.9798C78.0857 10.9798 77.786 11.0497 77.5282 11.1894C77.2761 11.3236 77.0632 11.5109 76.8895 11.7513C76.7214 11.9917 76.5926 12.2685 76.5029 12.5816C76.4133 12.8946 76.3685 13.2329 76.3685 13.5963Z" fill="#05059E"/>
<path d="M91.0756 6.25V18.4602H88.7645V6.25H91.0756Z" fill="#05059E"/>
<path d="M98.404 15.9779C98.404 15.7879 98.3536 15.6173 98.2527 15.4664C98.1519 15.3154 97.9614 15.1785 97.6812 15.0555C97.4067 14.9269 97.0033 14.8067 96.4711 14.6949C96.0004 14.5942 95.5662 14.4684 95.1684 14.3175C94.7706 14.1665 94.4289 13.9848 94.1431 13.7724C93.8574 13.5543 93.6333 13.3 93.4708 13.0092C93.3139 12.7129 93.2355 12.3719 93.2355 11.9861C93.2355 11.6116 93.3167 11.2593 93.4792 10.9295C93.6417 10.594 93.877 10.3005 94.1851 10.0489C94.4933 9.79175 94.8687 9.59049 95.3113 9.44513C95.7539 9.29418 96.2525 9.2187 96.8072 9.2187C97.5804 9.2187 98.2443 9.34449 98.799 9.59608C99.3593 9.84766 99.7879 10.1943 100.085 10.636C100.382 11.072 100.53 11.564 100.53 12.1119H98.3115C98.3115 11.8715 98.2555 11.6535 98.1435 11.4578C98.037 11.2621 97.8717 11.1056 97.6476 10.9882C97.4235 10.8652 97.1406 10.8037 96.7988 10.8037C96.4907 10.8037 96.2301 10.854 96.0172 10.9546C95.8099 11.0553 95.6531 11.1867 95.5466 11.3488C95.4401 11.5109 95.3869 11.6898 95.3869 11.8855C95.3869 12.0309 95.4149 12.1622 95.471 12.2796C95.5326 12.3915 95.6306 12.4949 95.7651 12.5899C95.8996 12.685 96.0817 12.7716 96.3114 12.8499C96.5467 12.9282 96.8352 13.0037 97.177 13.0763C97.8549 13.2105 98.446 13.3894 98.9503 13.613C99.4601 13.8311 99.8579 14.1218 100.144 14.4852C100.429 14.8486 100.572 15.3126 100.572 15.8773C100.572 16.2798 100.485 16.6488 100.312 16.9843C100.138 17.3141 99.8859 17.6021 99.5554 17.8481C99.2248 18.0941 98.8298 18.2869 98.3704 18.4267C97.9109 18.5609 97.3927 18.628 96.8156 18.628C95.9808 18.628 95.2749 18.4798 94.6978 18.1835C94.1207 17.8816 93.6837 17.5014 93.3867 17.043C93.0898 16.579 92.9413 16.0981 92.9413 15.6006H95.0676C95.0844 15.9528 95.1796 16.2351 95.3533 16.4476C95.527 16.66 95.7455 16.8138 96.0088 16.9088C96.2778 16.9983 96.5607 17.043 96.8576 17.043C97.1938 17.043 97.4767 16.9983 97.7065 16.9088C97.9362 16.8138 98.1098 16.688 98.2275 16.5314C98.3452 16.3693 98.404 16.1848 98.404 15.9779Z" fill="#05059E"/>
<path d="M104.926 17.4539L107.363 9.38642H109.741L106.094 19.8356C106.01 20.0592 105.9 20.3024 105.766 20.5652C105.637 20.8279 105.463 21.0767 105.245 21.3115C105.026 21.5519 104.752 21.7476 104.421 21.8986C104.096 22.0495 103.701 22.125 103.236 22.125C103.035 22.125 102.855 22.111 102.698 22.0831C102.542 22.0551 102.376 22.0188 102.203 21.974V20.3136C102.259 20.3192 102.323 20.322 102.396 20.322C102.474 20.3276 102.542 20.3304 102.598 20.3304C102.923 20.3304 103.192 20.2912 103.404 20.213C103.617 20.1403 103.788 20.0201 103.917 19.8524C104.052 19.6902 104.164 19.4778 104.253 19.215L104.926 17.4539ZM103.724 9.38642L105.783 16.0702L106.144 18.4099L104.615 18.6867L101.329 9.38642H103.724Z" fill="#05059E"/>
<path d="M115.708 16.5314V12.3467C115.708 12.0392 115.655 11.7737 115.548 11.5501C115.442 11.3264 115.279 11.1531 115.061 11.0301C114.842 10.9071 114.565 10.8456 114.229 10.8456C113.932 10.8456 113.671 10.8959 113.447 10.9966C113.229 11.0972 113.061 11.2398 112.943 11.4243C112.825 11.6032 112.767 11.81 112.767 12.0448H110.539C110.539 11.6703 110.629 11.3152 110.808 10.9798C110.988 10.6388 111.243 10.3369 111.573 10.0741C111.909 9.80573 112.31 9.59608 112.775 9.44513C113.246 9.29418 113.772 9.2187 114.355 9.2187C115.044 9.2187 115.658 9.33611 116.195 9.57092C116.739 9.80014 117.165 10.1468 117.473 10.6108C117.787 11.0748 117.944 11.6591 117.944 12.3635V16.3218C117.944 16.7746 117.972 17.1632 118.028 17.4875C118.089 17.8061 118.179 18.0829 118.296 18.3177V18.4602H116.036C115.929 18.231 115.848 17.9403 115.792 17.5881C115.736 17.2303 115.708 16.8781 115.708 16.5314ZM116.019 12.9338L116.036 14.2504H114.632C114.285 14.2504 113.98 14.2867 113.716 14.3594C113.453 14.4265 113.237 14.5271 113.069 14.6613C112.901 14.7899 112.775 14.9464 112.691 15.1309C112.607 15.3098 112.565 15.5139 112.565 15.7431C112.565 15.9668 112.615 16.168 112.716 16.3469C112.823 16.5258 112.974 16.6684 113.17 16.7746C113.372 16.8753 113.607 16.9256 113.876 16.9256C114.268 16.9256 114.61 16.8473 114.901 16.6908C115.193 16.5286 115.419 16.333 115.582 16.1037C115.744 15.8745 115.831 15.6565 115.842 15.4496L116.481 16.4056C116.403 16.6349 116.285 16.8781 116.128 17.1352C115.971 17.3924 115.77 17.6328 115.523 17.8564C115.277 18.0801 114.98 18.2646 114.632 18.4099C114.285 18.5553 113.882 18.628 113.422 18.628C112.834 18.628 112.307 18.5106 111.842 18.2758C111.377 18.0409 111.01 17.7195 110.741 17.3113C110.472 16.9032 110.338 16.4392 110.338 15.9192C110.338 15.4384 110.427 15.0135 110.607 14.6445C110.786 14.2756 111.052 13.9653 111.405 13.7137C111.758 13.4565 112.195 13.2636 112.716 13.135C113.243 13.0009 113.845 12.9338 114.523 12.9338H116.019Z" fill="#05059E"/>
<path d="M122.162 11.2398V18.4602H119.944V9.38642H122.045L122.162 11.2398ZM124.927 9.32772L124.894 11.3907C124.77 11.3684 124.63 11.3516 124.473 11.3404C124.322 11.3292 124.179 11.3236 124.045 11.3236C123.703 11.3236 123.403 11.3711 123.146 11.4662C122.888 11.5556 122.672 11.687 122.499 11.8603C122.33 12.0337 122.202 12.2461 122.112 12.4977C122.022 12.7437 121.972 13.0232 121.961 13.3363L121.482 13.2776C121.482 12.7018 121.54 12.1678 121.658 11.6758C121.776 11.1839 121.947 10.7534 122.171 10.3844C122.395 10.0154 122.675 9.73026 123.011 9.52899C123.353 9.32213 123.745 9.2187 124.188 9.2187C124.311 9.2187 124.443 9.22988 124.583 9.25225C124.728 9.26902 124.843 9.29418 124.927 9.32772Z" fill="#05059E"/>
<path d="M130.869 16.5314V12.3467C130.869 12.0392 130.816 11.7737 130.709 11.5501C130.603 11.3264 130.44 11.1531 130.222 11.0301C130.003 10.9071 129.726 10.8456 129.39 10.8456C129.093 10.8456 128.832 10.8959 128.608 10.9966C128.39 11.0972 128.222 11.2398 128.104 11.4243C127.986 11.6032 127.928 11.81 127.928 12.0448H125.7C125.7 11.6703 125.79 11.3152 125.969 10.9798C126.149 10.6388 126.404 10.3369 126.734 10.0741C127.07 9.80573 127.471 9.59608 127.936 9.44513C128.407 9.29418 128.933 9.2187 129.516 9.2187C130.205 9.2187 130.819 9.33611 131.356 9.57092C131.9 9.80014 132.326 10.1468 132.634 10.6108C132.948 11.0748 133.104 11.6591 133.104 12.3635V16.3218C133.104 16.7746 133.132 17.1632 133.189 17.4875C133.25 17.8061 133.34 18.0829 133.457 18.3177V18.4602H131.197C131.09 18.231 131.009 17.9403 130.953 17.5881C130.897 17.2303 130.869 16.8781 130.869 16.5314ZM131.18 12.9338L131.197 14.2504H129.793C129.446 14.2504 129.141 14.2867 128.877 14.3594C128.614 14.4265 128.398 14.5271 128.23 14.6613C128.062 14.7899 127.936 14.9464 127.852 15.1309C127.768 15.3098 127.726 15.5139 127.726 15.7431C127.726 15.9668 127.776 16.168 127.877 16.3469C127.984 16.5258 128.135 16.6684 128.331 16.7746C128.533 16.8753 128.768 16.9256 129.037 16.9256C129.429 16.9256 129.771 16.8473 130.062 16.6908C130.354 16.5286 130.58 16.333 130.743 16.1037C130.905 15.8745 130.992 15.6565 131.003 15.4496L131.642 16.4056C131.564 16.6349 131.446 16.8781 131.289 17.1352C131.132 17.3924 130.931 17.6328 130.684 17.8564C130.438 18.0801 130.141 18.2646 129.793 18.4099C129.446 18.5553 129.043 18.628 128.583 18.628C127.995 18.628 127.468 18.5106 127.003 18.2758C126.538 18.0409 126.171 17.7195 125.902 17.3113C125.633 16.9032 125.499 16.4392 125.499 15.9192C125.499 15.4384 125.588 15.0135 125.768 14.6445C125.947 14.2756 126.213 13.9653 126.566 13.7137C126.919 13.4565 127.356 13.2636 127.877 13.135C128.404 13.0009 129.006 12.9338 129.684 12.9338H131.18Z" fill="#05059E"/>
<path d="M139.408 9.38642V10.9798H134.197V9.38642H139.408ZM135.592 7.15571H137.819V15.8438C137.819 16.1121 137.856 16.319 137.928 16.4643C138.001 16.6097 138.111 16.7075 138.256 16.7579C138.402 16.8082 138.576 16.8333 138.777 16.8333C138.923 16.8333 139.057 16.8249 139.181 16.8082C139.304 16.7914 139.408 16.7746 139.492 16.7579L139.5 18.4183C139.315 18.4798 139.105 18.5301 138.87 18.5693C138.64 18.6084 138.379 18.628 138.088 18.628C137.589 18.628 137.152 18.5441 136.777 18.3764C136.402 18.2031 136.11 17.9263 135.903 17.5462C135.696 17.1604 135.592 16.6516 135.592 16.0199V7.15571Z" fill="#05059E"/>
<path d="M10.6208 18.5556C10.4195 17.3032 11.3311 17.1345 12.1317 17.0136C12.695 16.9284 13.624 17.1113 13.7093 17.5759C13.7947 18.0405 12.8571 18.7369 13.0407 19.3289C14.1959 20.2339 15.5775 19.2645 15.7907 17.8657C15.7339 13.819 9.0683 13.6992 9.01828 18.1457C8.92553 19.0066 9.36375 20.1161 9.80311 20.8215C9.5099 20.9842 8.98471 21.1411 8.6534 21.2228C7.18265 21.5859 7.10055 19.8889 7.09095 18.7905C7.08028 17.5682 7.34374 16.3703 7.97366 15.3728C10.9098 10.8334 16.4118 13.0931 17.3003 16.5493C18.5076 21.246 11.6869 23.6204 10.6208 18.5556Z" fill="#05059E"/>
<path d="M15.9983 1.20876C16.0261 1.28499 16.0003 1.4773 16.0026 1.56604C16.0228 2.352 15.8479 3.11049 15.7582 3.883C15.4205 6.73088 14.9241 8.44505 14.4489 11.2252C14.1511 11.4826 13.2587 11.6025 12.7817 11.3944C12.0111 11.0584 12.1724 11.0013 12.1632 10.7321C12.0816 8.33887 12.3926 6.40538 12.5375 3.84402C12.606 2.85858 12.6429 2.09198 12.7922 1.21841C12.8423 0.9255 12.857 0.839315 13.0835 0.384426C14.1493 -0.261962 15.3992 0.722993 15.9983 1.20876Z" fill="#05059E"/>
<path d="M19.8661 16.3621C21.0569 17.439 19.3671 21.2244 18.5835 22.3315C17.4298 23.9614 15.7564 24.8059 13.2109 24.6254C11.6885 24.5175 10.2509 24.1798 8.64805 22.7745C8.97186 22.2247 10.2027 21.5649 10.8217 21.7302C11.0707 21.7968 11.2609 21.9876 11.481 22.1105C15.2615 23.6616 18.0595 21.6675 18.4603 17.5271C18.4033 17.0209 18.0843 16.4521 18.09 15.9852C18.3478 15.6225 19.5832 16.1698 19.8661 16.3621Z" fill="#05059E"/>
<path d="M20.973 4.16405C21.5943 4.50575 21.6865 4.5208 21.6448 5.26061C21.1922 7.16462 19.7282 9.50611 18.1979 11.6688C17.8406 12.1737 17.2579 12.992 16.6868 12.7009C15.2311 11.959 15.6383 12.0452 16.668 9.53067C17.6977 7.01613 19.0281 4.865 19.4901 4.0995C19.952 3.334 20.0096 3.63415 20.973 4.16405Z" fill="#05059E"/>
<path d="M8.5016 2.88029C9.1017 3.41949 10.3491 9.17275 10.6664 10.9719C10.766 11.5369 9.75978 11.9771 9.12621 11.778C8.49263 11.5788 8.14783 9.89921 7.21193 7.97264C6.27602 6.04607 5.92664 4.80078 6.12594 3.91674C6.32524 3.0327 7.9015 2.3411 8.5016 2.88029Z" fill="#05059E"/>
<path d="M0.519282 13.7807C0.850082 13.726 1.10458 13.7044 1.44089 13.7235C1.77096 13.7436 2.09564 13.7978 2.40808 13.8848C2.71026 13.9704 4.58147 14.7421 4.65819 14.9147C5.18605 16.1024 5.41773 17.4318 5.74337 18.6785C5.83991 19.0481 5.99964 19.5251 5.95198 19.9353C5.58902 20.4885 5.72728 20.2952 5.30689 20.3668C5.21006 20.3491 5.02896 20.3178 4.95614 20.2752C3.45992 19.4015 1.95312 17.3076 0.994177 15.9616C0.804978 15.6916 0.626352 15.4161 0.458572 15.1352C0.201763 14.7049 -0.345665 13.9538 0.519282 13.7807Z" fill="#05059E"/>
<path d="M23.8138 8.19514C24.2285 8.67382 25.1139 9.13441 24.5383 10.157C23.9628 11.1796 23.0118 12.1546 22.1294 12.9889C21.247 13.8233 20.9067 14.0927 19.9213 14.6767L19.4792 14.7576C19.038 14.5348 19.0388 14.5124 18.7404 14.0815C18.7676 13.6534 18.9366 13.5337 19.1789 13.1818C20.2317 11.6527 21.71 9.87489 22.0708 9.50919C22.4317 9.14348 23.4636 8.2355 23.8138 8.19514Z" fill="#05059E"/>
</svg>
