<svg width="80" height="90" viewBox="0 0 80 90" fill="none" xmlns="http://www.w3.org/2000/svg">
<path d="M53.0479 4.23573C53.967 4.20169 54.531 4.24719 55.425 4.46684C57.7961 5.0342 59.8467 6.54356 61.1204 8.65934C61.7667 8.30538 62.8239 7.65279 63.4839 7.41615C65.4768 6.70137 68.2365 6.69124 70.1606 7.62919C71.2319 8.16584 72.61 8.91651 73.3754 9.86808C74.1002 10.7696 74.9409 11.8584 75.3573 12.9421C76.2678 15.3222 76.2161 17.973 75.2136 20.3145C75.8374 20.6296 77.4395 22.0824 77.8991 22.6647C79.0608 24.1373 79.8608 26.4428 79.9869 28.3422C80.1225 30.3846 79.1898 33.1093 77.9553 34.7227C77.4144 35.3839 76.419 36.1762 75.8193 36.9223L75.7751 36.9779C76.3668 37.5285 77.2256 38.1296 77.7273 38.7538C79.9623 41.5366 80.7101 45.7923 79.1361 49.0781C79.0894 49.1758 78.881 49.1993 78.7865 49.2113C75.7334 49.2907 72.6542 49.1668 69.6026 49.2158L69.5464 49.1493C69.6554 48.6164 72.2113 46.2113 72.3946 45.3557C72.6382 44.219 71.594 43.0544 70.4589 43.1174C69.2365 43.1035 68.6403 44.4399 67.8719 45.0588C66.5752 46.1033 65.1619 48.1265 63.8425 48.9897C62.0123 49.1065 59.6714 48.9748 57.7835 49.0196C56.9503 49.0394 54.1523 49.0529 53.4944 48.9471C53.404 48.7416 54.2729 48.0244 54.4989 47.7798C56.1467 45.995 57.9226 44.278 59.6217 42.5421L66.2904 35.7046L68.9286 33.0188C69.8738 32.0689 70.8376 31.1483 71.7286 30.1409C71.9034 29.9055 72.378 29.4708 72.4041 29.1675C72.5729 27.2291 70.5388 26.0484 69.0688 27.5276C68.2953 28.3063 67.7298 29.0611 66.9604 29.7096C65.862 30.6352 65.1588 31.6935 64.0931 32.6273C63.8892 32.8022 63.6742 33.0221 63.4859 33.2151L55.6821 41.1473C55.2351 41.6012 54.8439 42.0803 54.4105 42.5367C53.9861 42.9837 53.4045 43.4421 52.9957 43.9094C52.1871 44.8342 51.5015 45.5466 50.5432 46.3258C50.0174 45.9066 49.2279 45.0213 48.7287 44.5104C47.5927 43.349 46.3905 42.1664 45.2796 40.9848C45.6034 40.5188 45.9845 40.2616 46.3686 39.8635L49.0054 37.141L63.1901 22.6572L66.422 19.3681C67.0151 18.7651 67.9026 18.0225 68.2687 17.2634C68.674 16.4229 68.1085 15.0751 67.2527 14.7523C66.7128 14.5453 66.1096 14.5999 65.6144 14.9007C65.2277 15.136 64.8776 15.5703 64.5506 15.8988L62.054 18.4467L47.7166 33.0074C47.0632 33.6734 43.0939 37.9109 42.6153 38.1341C42.1257 37.876 37.776 33.4608 37.3281 32.8268C38.5685 31.3368 40.7203 29.3059 42.1116 27.888L50.9124 18.8763C51.7406 18.0266 52.6205 17.2159 53.4376 16.3517C54.0172 15.7389 55.1884 14.8334 55.1673 13.9121C55.1247 12.8357 54.3869 11.856 53.2543 11.9111C52.1856 11.9631 51.6457 12.8497 50.9129 13.5767C49.4328 15.037 47.9768 16.522 46.5444 18.0309L41.0275 23.6609C40.3194 24.3887 39.6171 25.0493 38.9319 25.8059C37.9134 26.7943 37.0145 27.7581 36.0349 28.7623L28.274 36.6303L28.3571 36.8752C28.6383 37.7053 28.9307 38.5408 29.1149 39.4141C29.9095 43.1825 29.6072 47.1354 28.2655 50.7376C27.9592 51.4466 27.4942 52.1596 27.2114 52.8706C26.8693 53.7305 24.7964 56.7849 24.008 57.0603C23.6975 57.0055 19.2955 52.4068 18.7691 51.8013C19.0467 51.3493 19.5315 50.7346 19.8661 50.2928C22.3659 46.9931 22.5583 42.0797 20.7748 38.3998C20.3612 37.5464 19.3415 36.2333 18.7247 35.518C19.653 34.5166 20.4914 33.6985 21.427 32.7343L29.9856 23.9971C30.5148 23.4505 31.2751 22.8078 31.2203 22.0024C31.1842 21.4914 30.9996 20.8503 30.5939 20.516C29.7821 19.8471 28.828 19.8435 28.0658 20.5867C27.4653 21.1725 26.9142 21.7687 26.331 22.3548L21.6116 27.1928L16.5618 32.3335C15.6189 33.2937 14.1966 34.7269 13.349 35.7328C12.1474 37.1245 11.3167 38.6178 10.4484 40.1992C6.93838 46.5921 6.82347 54.8746 9.50999 61.597C10.2758 63.0896 11.0158 64.8142 12.004 66.1742C13.9624 68.8697 16.3049 71.1496 19.0694 72.9023C23.65 75.8302 29.0544 77.1263 34.4355 76.5873C34.5675 76.7383 34.5153 83.4433 34.5146 84.2582C29.5741 84.5218 24.7962 83.9593 20.1706 82.1042C19.6209 81.8836 19.0699 81.5647 18.5239 81.32C16.685 80.4975 14.9427 79.4993 13.3481 78.2513C12.8662 77.8424 12.1875 77.4841 11.7364 77.0546C10.9407 76.1803 9.73936 75.3639 8.99042 74.4865C8.1442 73.495 7.06841 72.2983 6.31134 71.254C1.21252 64.2403 -0.92629 55.4417 0.37026 46.8135C1.18352 41.2919 3.46632 35.9232 6.88736 31.5348C8.17685 29.8807 9.42637 28.6734 10.8681 27.1996L16.1444 21.825L21.2975 16.5777C22.0658 15.8041 22.5646 15.1169 23.4402 14.4484C25.6685 12.7471 28.1711 12.0016 30.9482 12.4755C32.7295 12.7795 34.8538 13.9804 36.128 15.288C36.3378 15.5032 36.94 16.3729 37.1476 16.6635C38.2778 15.5516 39.4932 14.2441 40.604 13.0963L45.9264 7.66477C47.1024 6.44461 47.7399 5.8812 49.2806 5.16923C50.7316 4.49862 51.4081 4.25006 53.0479 4.23573Z" fill="#272727"/>
<path d="M54.3238 54.227C57.2408 54.0883 60.2893 54.2951 63.2179 54.2056C64.0873 54.1784 65.1168 54.1759 65.9762 54.2373C66.6668 54.7574 68.9077 57.3551 69.5069 58.1101C70.9935 58.1772 72.5058 58.126 73.9994 58.1367C75.6618 58.149 77.1545 57.9177 78.4638 59.2142C79.627 60.366 79.7088 61.1404 79.7164 62.7364L79.7154 79.227L79.7189 83.9347C79.7194 85.6474 79.9273 87.525 78.6059 88.8379C77.1288 90.3049 74.8823 89.9666 72.9864 89.9656L66.0138 89.9671H50.6574L46.4673 89.9717C44.7926 89.9753 43.2016 90.1683 41.845 88.906C40.8964 88.023 40.6067 86.8657 40.5904 85.5947C40.5686 83.8876 40.5812 82.1692 40.5813 80.458L40.5816 70.5313L40.5801 64.8848C40.58 63.2458 40.3103 61.0621 41.4164 59.7179C43.0317 57.7549 44.8536 58.1337 47.1614 58.1378C48.3517 58.1511 49.5415 58.1439 50.7313 58.1168C50.9593 57.9269 51.1969 57.5783 51.4073 57.3428C51.7001 57.0157 52.026 56.7322 52.3193 56.4107C52.7829 55.9039 53.7884 54.5454 54.3238 54.227ZM60.2381 83.9951C65.603 83.9546 69.9228 79.4942 69.8926 74.0263C69.8625 68.558 65.4935 64.1477 60.1281 64.1692C54.7502 64.1907 50.4098 68.6568 50.44 74.1379C50.4701 79.6196 54.8597 84.0355 60.2381 83.9951Z" fill="#272727"/>
<path d="M59.4551 67.718C62.9065 67.3116 66.0254 69.8402 66.4131 73.3593C66.8003 76.8785 64.3092 80.0485 60.8549 80.4319C57.4171 80.8133 54.3243 78.2882 53.9386 74.7859C53.5533 71.2832 56.0198 68.1229 59.4551 67.718Z" fill="#272727"/>
<path d="M21.915 0.0449424L22.6194 0C22.602 0.280302 22.5901 0.563957 22.5933 0.844812C22.6123 2.49793 22.5426 4.18803 22.6301 5.83816C18.7703 5.72145 15.0443 7.19662 12.0081 9.56624C11.4821 9.97681 11.0978 10.4608 10.6238 10.919C8.24942 13.2142 6.56437 16.5921 5.99819 19.8699C5.81111 20.939 5.82347 21.9551 5.69138 23.012C4.13249 22.9656 2.31269 23.0191 0.735555 23.0253L0.0509911 23.0284C-0.12315 19.9726 0.733149 16.2015 2.05265 13.4971C2.65144 12.27 3.28586 10.8785 4.06448 9.75251C4.52724 9.08328 5.32078 8.15352 5.85556 7.53456C7.60043 5.54695 9.69406 3.90885 12.0289 2.70437C12.5015 2.45915 12.9781 2.16326 13.4591 1.94429C16.1867 0.702557 18.96 0.232283 21.915 0.0449424Z" fill="#272727"/>
</svg>
