<svg width="21" height="16" viewBox="0 0 21 16" fill="none" xmlns="http://www.w3.org/2000/svg">
<path d="M1.43457 7.71698L0.737492 6.99999L1.14441e-05 7.71698L0.737492 8.43397L1.43457 7.71698ZM19.4346 8.71698C19.9869 8.71698 20.4346 8.26926 20.4346 7.71698C20.4346 7.1647 19.9869 6.71698 19.4346 6.71698V7.71698V8.71698ZM8.63457 0.71698L7.93749 -1.49608e-05L0.737492 6.99999L1.43457 7.71698L2.13165 8.43397L9.33165 1.43397L8.63457 0.71698ZM1.43457 7.71698L0.737492 8.43397L7.93749 15.434L8.63457 14.717L9.33165 14L2.13165 6.99999L1.43457 7.71698ZM1.43457 7.71698V8.71698H19.4346V7.71698V6.71698H1.43457V7.71698Z" fill="#272727"/>
</svg>
