<svg width="20" height="18" viewBox="0 0 20 18" fill="none" xmlns="http://www.w3.org/2000/svg">
<path d="M3.75 10.7502H15.75C17.4069 10.7502 18.75 12.0934 18.75 13.7502C18.75 15.4071 17.4069 16.7502 15.75 16.7502H3.75C2.09315 16.7502 0.75 15.4071 0.75 13.7502C0.75 12.0934 2.09315 10.7502 3.75 10.7502Z" stroke="#272727" stroke-width="1.5"/>
<path d="M0.75 13.7502C0.75 12.2534 2.4305 5.71498 3.27598 2.52015C3.44232 1.89162 3.52548 1.57736 3.70705 1.33968C3.86633 1.13116 4.08141 0.965598 4.32374 0.864957C4.59996 0.750244 4.92767 0.750244 5.58311 0.750244H13.9169C14.5723 0.750244 14.9 0.750244 15.1763 0.864957C15.4186 0.965598 15.6337 1.13116 15.793 1.33968C15.9745 1.57736 16.0577 1.89162 16.224 2.52015C17.0695 5.71498 18.75 12.2534 18.75 13.7502" stroke="#272727" stroke-width="1.5"/>
<rect x="14.75" y="12.7502" width="2" height="2" rx="1" fill="#272727"/>
<rect x="2.75" y="12.7502" width="4" height="2" rx="1" fill="#272727"/>
</svg>
