<svg width="16" height="20" viewBox="0 0 16 20" fill="none" xmlns="http://www.w3.org/2000/svg">
<path d="M8 0V5C8 5.44313 7.99825 5.87603 8.0459 6.23047C8.09742 6.61367 8.22272 7.05085 8.58594 7.41406C8.94915 7.77728 9.38633 7.90258 9.76953 7.9541C10.124 8.00175 10.5569 8 11 8H16V14C16 16.8284 15.9998 18.2424 15.1211 19.1211C14.2424 19.9998 12.8284 20 10 20H6C3.17157 20 1.75759 19.9998 0.878906 19.1211C0.000226796 18.2424 0 16.8284 0 14V6C0 3.17157 0.000226617 1.75759 0.878906 0.878906C1.75759 0.000226617 3.17157 0 6 0H8ZM10 0.00585938C10.4115 0.0160485 10.6837 0.0476991 10.9365 0.152344C11.3041 0.304585 11.5938 0.593814 12.1719 1.17188L14.8281 3.82812C15.4062 4.40619 15.6954 4.69593 15.8477 5.06348C15.9523 5.31627 15.983 5.58856 15.9932 6H11C10.5005 6 10.2263 5.9982 10.0361 5.97266C10.0335 5.9723 10.0308 5.97106 10.0283 5.9707C10.028 5.96853 10.0276 5.96612 10.0273 5.96387C10.0018 5.77368 10 5.4995 10 5V0.00585938Z" fill="#272727"/>
</svg>
