<svg width="18" height="20" viewBox="0 0 18 20" fill="none" xmlns="http://www.w3.org/2000/svg">
<path d="M4.75 4.75L8.75 4.75" stroke="#272727" stroke-width="1.5" stroke-linecap="round"/>
<path d="M4.75 12.75L7.75 12.75" stroke="#272727" stroke-width="1.5" stroke-linecap="round"/>
<path d="M4.75 8.75L10.75 8.75" stroke="#272727" stroke-width="1.5" stroke-linecap="round"/>
<path d="M14.75 12.25V5.25C14.75 3.12868 14.75 2.06802 14.091 1.40901C13.432 0.75 12.3713 0.75 10.25 0.75H5.25C3.12868 0.75 2.06802 0.75 1.40901 1.40901C0.75 2.06802 0.75 3.12868 0.75 5.25V14.25C0.75 16.3713 0.75 17.432 1.40901 18.091C2.06802 18.75 3.12868 18.75 5.25 18.75H7.75" stroke="#272727" stroke-width="1.5"/>
<path d="M10.2499 16.25L12.2196 18.2197C12.5125 18.5126 12.9874 18.5126 13.2803 18.2197L17.25 14.25" stroke="#272727" stroke-width="1.5" stroke-linecap="round"/>
</svg>
