<svg width="20" height="19" viewBox="0 0 20 19" fill="none" xmlns="http://www.w3.org/2000/svg">
<path d="M7.771 3.9415C8.5576 1.9805 8.9509 1 9.62723 1C10.3036 1 10.6969 1.9805 11.4835 3.9415L11.5201 4.03281C11.9645 5.14068 12.1867 5.69462 12.6395 6.0313C13.0924 6.36799 13.6868 6.42123 14.8758 6.52771L15.0907 6.54696C17.0365 6.72122 18.0094 6.80835 18.2176 7.42734C18.4258 8.04632 17.7032 8.70366 16.2582 10.0183L15.7759 10.4571C15.0444 11.1226 14.6787 11.4554 14.5082 11.8915C14.4764 11.9729 14.45 12.0562 14.429 12.141C14.317 12.5957 14.4241 13.0784 14.6383 14.0439L14.705 14.3444C15.0987 16.1188 15.2955 17.0059 14.9518 17.3886C14.8234 17.5316 14.6565 17.6345 14.4711 17.6851C13.9749 17.8205 13.2704 17.2465 11.8614 16.0984C10.9363 15.3445 10.4737 14.9676 9.94257 14.8828C9.73367 14.8494 9.52079 14.8494 9.31188 14.8828C8.78078 14.9676 8.3182 15.3445 7.39302 16.0984C5.98407 17.2465 5.2796 17.8205 4.78339 17.6851C4.59798 17.6345 4.43107 17.5316 4.30264 17.3886C3.95896 17.0059 4.1558 16.1188 4.54947 14.3444L4.61615 14.0439C4.83036 13.0784 4.93746 12.5957 4.82541 12.141C4.80451 12.0562 4.77807 11.9729 4.74627 11.8915C4.5758 11.4554 4.21004 11.1226 3.47854 10.4571L2.99626 10.0184C1.55121 8.70366 0.82869 8.04632 1.03687 7.42734C1.24505 6.80835 2.21795 6.72122 4.16377 6.54696L4.37871 6.52771C5.56762 6.42123 6.16208 6.36799 6.61493 6.0313C7.06778 5.69462 7.28998 5.14068 7.73437 4.03281L7.771 3.9415Z" stroke="#272727" stroke-width="2"/>
</svg>
