<svg width="248" height="220" viewBox="0 0 248 220" fill="none" xmlns="http://www.w3.org/2000/svg">
<path d="M56.7991 0.108903C61.9631 -0.0848216 68.3624 0.0887571 73.6347 0.0887972L106.521 0.0893048L167.701 0.0904534L187.781 0.0841474C191.167 0.0826912 194.693 -0.136175 198.059 0.13788C198.473 0.171492 198.874 0.243392 199.259 0.399964C199.976 0.691051 200.492 1.28375 200.774 1.99598C201.254 3.20941 200.986 37.8022 200.986 41.4183V163.043L200.989 197.538C200.994 203.456 201.018 209.377 200.989 215.295C200.978 217.297 200.57 218.309 198.592 219.019C196.665 219.172 194.125 219.106 192.156 219.104L181.657 219.099L148.42 219.098L88.3848 219.1C78.251 219.102 68.1182 219.112 57.9836 219.102C56.8955 219.263 54.5929 218.474 54.4793 217.1C54.167 213.328 54.309 208.541 54.3133 204.799L54.317 175.078L54.3158 37.55L54.3143 14.0968L54.3001 6.90649C54.2932 4.1765 53.5789 0.954832 56.7991 0.108903ZM59.1129 214.157L90.6212 214.188L147.286 214.187L179.804 214.184L189.704 214.193C191.679 214.201 194.05 214.273 195.995 214.16L196.164 213.992L196.161 213.66L196.152 5.01226C184.894 5.1377 173.469 5.02455 162.193 5.02348L97.208 5.02081L70.4892 5.02388L63.3317 5.04098C62.226 5.04459 60.1653 5.12889 59.1564 4.94106L59.1355 152.734L59.1364 193.394C59.1365 199.959 59.3391 207.693 59.1129 214.157Z" fill="#E5E8FA"/>
<path d="M73.1668 18.4072C75.4043 18.2708 78.4018 18.3525 80.6984 18.3543L93.7578 18.3587L134.874 18.359L165.459 18.3571L175.141 18.3495C176.885 18.3487 178.651 18.3248 180.412 18.4163C181.435 18.4695 182.369 18.9387 182.979 19.7636C183.218 20.0866 183.373 22.0922 183.373 22.5589C183.387 30.2215 183.379 37.9035 183.377 45.5648L183.381 91.0366L183.372 145.218C183.369 153.883 183.38 162.567 183.392 171.235C183.392 171.915 183.313 173.275 183.037 173.867C182.601 174.799 181.887 175.133 180.985 175.459C176.48 175.7 170.263 175.518 165.651 175.518L136.63 175.517H94.7248C87.9634 175.517 81.1828 175.521 74.4206 175.531C73.6385 175.533 72.7684 175.466 72.09 175.084C71.7118 174.871 71.1387 174.497 71.0321 174.055C70.5318 171.984 70.6838 169.442 70.6839 167.294L70.685 159.584L70.6912 132.967L70.6899 56.6717C70.6931 45.2321 70.7044 33.792 70.6711 22.3528C70.6654 20.3546 70.9919 18.9205 73.1668 18.4072ZM75.5151 78.9372C77.785 74.045 80.482 67.1177 85.9353 65.063C89.1132 63.8656 91.5348 65.0658 93.7029 67.38C97.9769 66.4116 101.375 66.4275 104.476 69.9804C107.586 69.3742 109.59 69.4653 112.341 71.2484C115.929 73.5736 116.681 78.6089 115.577 82.4632C114.247 87.1102 111.662 91.4522 109.708 95.8654C108.808 97.8222 107.001 102.384 106.097 103.89C111.473 107.199 110.634 117 107.466 121.594C105.018 125.144 103.092 126.85 100.033 129.722C95.9935 133.501 91.9208 137.246 87.8155 140.953C85.0816 143.469 82.5392 146.153 79.8827 148.743C78.4325 150.158 77.4829 150.577 75.5736 149.797L75.5851 163.214C75.5851 165.492 75.6685 168.331 75.5385 170.547C81.0035 170.591 87.5662 170.372 92.8932 170.619C93.0001 166.733 98.9549 157.598 101.44 154.47C103.497 151.889 105.742 149.466 108.157 147.218C112.63 142.987 117.241 140.172 122.787 137.64C139.096 130.194 156.816 128.191 174.566 128.897C175.916 128.951 177.156 128.945 178.496 129.26C178.388 125.005 178.471 120.518 178.46 116.246C178.449 111.624 178.401 106.791 178.577 102.192C178.712 100.938 178.592 98.9373 178.591 97.6239C178.589 96.306 178.676 94.6555 178.58 93.3782C178.412 89.3745 178.465 85.288 178.467 81.2724L178.464 64.5265C178.461 50.9114 178.306 36.9864 178.477 23.3939C170.117 23.1226 160.665 23.3328 152.233 23.3327L103.116 23.3331L84.2812 23.3378C82.3122 23.3393 77.2562 23.4878 75.5736 23.3304L75.5868 58.0531C75.5875 64.9346 75.6801 72.0797 75.5151 78.9372ZM148.058 124.488C162.884 124.259 174.722 112.061 174.504 97.2348C174.285 82.4081 162.095 70.5632 147.267 70.7723C132.427 70.9816 120.57 83.1861 120.789 98.0257C121.007 112.865 133.218 124.715 148.058 124.488ZM91.1136 116.356C91.7824 116.327 94.2652 116.015 94.664 115.823C96.6918 114.847 100.358 116.775 97.8493 118.455C93.9166 121.089 84.2124 120.747 81.2423 116.591C79.0338 113.599 79.5423 109.039 82.7755 107.023C85.3408 105.329 88.6332 104.554 91.592 103.861C92.6349 103.623 93.5078 103.779 94.4953 103.417C94.0465 103.029 92.0175 103.428 92.0967 101.804C92.2313 100.125 93.1603 98.4235 93.7918 96.8726C96.6562 89.8373 100.844 82.6795 101.112 74.9094C101.269 70.329 99.2364 70.0032 95.4117 70.3914C95.5465 72.0489 95.4386 74.0973 94.9307 75.6932C92.697 82.7107 89.4974 89.3657 87.5463 96.4949C86.8977 98.8646 85.9788 101.715 82.937 100.197C82.5913 100.029 82.4141 99.2071 82.4494 98.8476C83.3077 94.9716 84.7858 91.0024 86.1133 87.2368C87.7695 82.5391 90.221 77.8518 91.1126 72.9333C91.4707 70.9581 90.295 68.5057 88.2225 68.0428C81.4317 70.8285 77.4081 85.4856 75.6976 92.2286C75.4651 93.1447 75.5693 96.3811 75.5708 97.5256L75.584 106.038L75.589 133.48C75.5891 137.68 75.7919 143.91 75.5168 147.906L75.666 147.711C77.6097 145.196 81.7627 141.457 84.1455 139.271C87.0246 136.594 89.9296 133.944 92.8601 131.321C98.6694 126.199 106.884 119.905 105.554 111.246C105.399 110.236 104.71 107.371 103.83 107.054C99.98 105.666 94.0933 107.076 90.2454 108.001C87.2806 108.714 83.5247 110.173 84.5999 113.627C85.3898 116.343 88.7127 116.317 91.1136 116.356ZM178.213 100.788C176.533 117.067 162.393 129.176 146.049 128.329C129.704 127.483 116.89 113.978 116.901 97.6122C116.913 81.2463 129.746 67.7593 146.091 66.9354C162.437 66.1114 176.56 78.2395 178.218 94.5214C178.429 96.6049 178.428 98.7047 178.213 100.788ZM101.893 102.937L101.946 102.775C103.482 98.2199 106.395 93.3329 108.291 88.8455C110.041 84.7013 113.063 80.201 110.868 75.5266C109.948 73.5759 108.326 73.0069 106.312 73.139C106.022 73.3041 105.583 73.4445 105.552 73.8075C105.366 75.9731 105.338 78.2464 104.818 80.368C103.477 85.8375 101.057 90.9039 98.8105 96.0403C97.7745 98.4095 96.9896 101.763 95.0007 103.377C97.0722 102.986 97.9721 102.861 100.065 102.852L101.893 102.937ZM178.483 170.588C178.389 160.57 178.519 143.099 178.448 132.322C178.4 132.256 178.352 132.19 178.305 132.124L178.217 132.127C174.413 132.453 170.372 132.338 166.537 132.374C163.066 132.439 159.596 132.597 156.134 132.85C143.784 133.751 128.673 137.931 118.18 144.591C109.521 150.088 101.168 160.863 97.5013 170.397L97.615 170.57L97.793 170.595L147.789 170.57L168.025 170.571C171.407 170.572 175.12 170.499 178.483 170.588Z" fill="#E5E8FA"/>
<path d="M178.212 100.788C176.533 117.067 162.392 129.176 146.048 128.329C129.704 127.483 116.89 113.978 116.901 97.6122C116.912 81.2463 129.745 67.7593 146.091 66.9354C162.436 66.1114 176.56 78.2395 178.217 94.5213C178.429 96.6049 178.427 98.7047 178.212 100.788ZM148.057 124.488C162.884 124.259 174.721 112.061 174.504 97.2348C174.284 82.4081 162.094 70.5632 147.266 70.7723C132.427 70.9816 120.569 83.1861 120.788 98.0256C121.006 112.865 133.218 124.715 148.057 124.488Z" fill="#E5E8FA"/>
<path d="M141.321 89.8418C146.23 89.9174 141.752 98.4829 143.462 100.987C144.687 102.78 148.377 100.5 149.883 101.1C152.321 102.073 150.358 103.651 148.85 104.314C146.677 105.239 144.304 105.61 141.955 104.787C136.926 103.003 139.163 97.2632 139.321 93.3599C139.394 91.5466 139.651 90.5613 141.321 89.8418Z" fill="#E5E8FA"/>
<path d="M160.988 97.4696C162.05 97.4082 163.672 97.6825 163.598 99.0978C163.244 105.907 160.093 113.299 152.544 114.239C151.642 114.274 150.517 114.13 149.96 113.4C148.827 111.915 152.439 110.698 153.155 110.371C156.502 108.84 157.886 105.754 158.768 102.383C159.239 100.582 159.148 98.3124 160.988 97.4696Z" fill="#E5E8FA"/>
<path d="M133.038 89.8569C135.726 89.5129 136.387 92.037 136.81 94.1522C137.16 95.9009 137.935 97.7107 136.015 98.6484C135.683 98.6563 135.197 98.6713 134.879 98.589C134.423 98.4764 134.034 98.185 133.796 97.781C133.294 96.9358 131.556 92.0774 131.843 90.9576C131.986 90.4006 132.559 90.1198 133.038 89.8569Z" fill="#E5E8FA"/>
<path d="M153.651 84.7703C154.907 84.6768 155.864 85.0666 156.357 86.281C157.087 88.0745 158.321 90.9267 156.163 92.0878C154.95 92.2051 154.146 91.8601 153.545 90.7043C152.866 89.3961 152.253 87.2544 152.525 85.788C152.62 85.2803 153.239 84.9787 153.651 84.7703Z" fill="#E5E8FA"/>
<path d="M178.218 94.5213L178.423 94.9978C178.502 94.8299 178.548 93.6656 178.58 93.3782C178.676 94.6554 178.589 96.306 178.59 97.6239C178.592 98.9373 178.712 100.938 178.577 102.192C178.509 101.582 178.577 100.833 178.429 100.286L178.212 100.788C178.427 98.7047 178.429 96.6048 178.218 94.5213Z" fill="#E5E8FA"/>
<path d="M128.344 181.967C135.858 181.642 142.22 187.456 142.573 194.969C142.924 202.483 137.134 208.866 129.621 209.245C122.07 209.627 115.646 203.8 115.293 196.246C114.939 188.694 120.79 182.293 128.344 181.967ZM130.489 205.327C135.873 204.464 139.527 199.386 138.636 194.007C137.746 188.629 132.652 184.999 127.277 185.916C121.939 186.825 118.34 191.878 119.224 197.22C120.108 202.561 125.143 206.186 130.489 205.327Z" fill="#E5E8FA"/>
<path d="M125.036 9.42674C127.872 9.18801 129.447 11.7453 126.379 13.1596C123.119 13.3834 121.98 10.6148 125.036 9.42674Z" fill="#E5E8FA"/>
<path d="M22.0008 72.7673C22.1627 72.7506 22.3241 72.7383 22.4871 72.7375C25.8972 72.7184 45.3861 77.1044 47.2245 79.0906C47.4802 79.3668 47.5833 79.7068 47.5205 80.0793C47.4517 80.4875 47.1495 80.8182 46.8111 81.0349C46.3954 81.3009 45.9334 81.4447 45.4394 81.3774C43.208 81.0732 41.0252 80.0964 38.8572 79.5055C34.6717 78.3539 30.4412 77.3728 26.1761 76.5646C27.6733 78.1205 29.075 80.2739 30.4818 81.9624C32.2076 84.0339 33.743 86.2555 35.4379 88.3638C39.0036 92.7998 32.5825 93.302 29.4118 93.9396C21.5611 95.5183 13.7775 97.4692 6.1218 99.9043C10.3748 101.254 14.5975 102.627 18.9038 103.802C22.3985 104.756 34.8525 107.155 37.0799 108.709C37.5352 109.027 37.7966 109.359 37.8664 109.926C37.9238 110.393 37.8748 110.696 37.6628 111.12C37.0918 112.259 36.2783 113.319 35.5799 114.388L31.2771 120.972C29.7081 123.416 28.1556 125.871 26.6196 128.335C25.7439 129.721 24.6959 131.488 23.691 132.741C24.6525 132.493 25.4731 132.338 26.4524 132.16C31.1634 131.318 35.9566 130.335 40.7154 129.886C41.5514 129.809 43.0581 130.562 42.8753 131.687C42.5543 132.153 42.1265 132.462 41.5793 132.602C39.0097 133.261 36.1545 133.706 33.5387 134.203L26.3597 135.564C24.7608 135.863 23.219 136.197 21.5629 136.332C20.8321 136.664 18.1503 135.799 18.3434 134.741C19.0781 132.278 21.2402 129.484 22.5701 127.289C25.9169 121.768 29.7624 116.408 33.0014 110.852C30.5934 110.322 28.2066 109.585 25.807 108.995C20.3488 107.654 14.9401 106.278 9.55584 104.656C7.04848 103.9 4.07878 103.135 1.81041 101.834C1.13841 101.449 0.159648 100.661 0.025119 99.8394C-0.0281716 99.514 -0.00559435 99.246 0.180194 98.9654C2.01028 96.2028 27.1566 90.7083 31.6711 89.9051C29.7451 87.4824 21.1471 76.9472 20.4188 75.0707C20.2735 74.6965 20.3073 74.2386 20.4889 73.8804C20.7915 73.2836 21.4067 72.9915 22.0008 72.7673Z" fill="#E5E8FA"/>
<path d="M229.495 68.8735C231.894 68.7576 232.994 70.4687 231.466 72.4329C227.348 77.7228 222.845 83.0198 218.367 88.0094C221.095 88.4042 224.129 89.0977 226.847 89.6546C233.17 90.9494 239.68 92.0991 245.701 94.47C248.324 95.5032 248.025 97.3615 245.596 98.2127C244.13 98.7258 242.586 99.0538 241.078 99.4285L234.772 101.018C230.305 102.126 226.72 103.209 222.348 104.472C225.976 109.516 230.317 114.262 234.29 119.052C234.911 119.802 235.443 120.327 235.822 121.261C235.831 123.493 233.103 123.292 231.61 123.155C227.884 122.807 224.145 122.616 220.401 122.58C218.808 122.557 213.46 122.811 212.905 122.175C209.858 118.68 221.546 119.221 222.32 119.219C224.632 119.18 226.945 119.239 229.251 119.395C227.239 117.134 217.788 106.092 217.245 103.94C217.131 103.49 217.323 102.983 217.581 102.618C217.819 102.281 218.134 102.031 218.507 101.858C219.958 101.188 221.759 100.913 223.304 100.475C228.824 98.9128 234.371 97.3419 240 96.223C238.629 95.6967 236.355 95.1989 234.863 94.8429C230.895 93.921 226.907 93.0847 222.904 92.3345C213.833 90.5874 209.515 91.3295 217.971 82.4686C220.099 80.2379 223.193 76.5621 225.136 74.1118C221.657 75.6316 217.808 76.6765 214.232 77.972C213.334 78.2973 212.4 78.5836 211.475 78.7964C209.749 79.1937 207.435 78.6838 208.713 76.4643C208.975 76.0283 212.418 74.9818 213.055 74.7698C216.561 73.6234 220.042 72.4073 223.498 71.1222C225.092 70.5223 227.981 69.2143 229.495 68.8735Z" fill="#E5E8FA"/>
</svg>
