<svg width="124" height="110" viewBox="0 0 124 110" fill="none" xmlns="http://www.w3.org/2000/svg">
<path d="M28.3995 0.054459C30.9816 -0.0424032 34.1812 0.0443862 36.8173 0.0444062L53.2607 0.04466L83.8507 0.0452343L93.8903 0.0420813C95.5836 0.0413532 97.3464 -0.0680796 99.0297 0.0689475C99.2367 0.0857536 99.4371 0.121704 99.6295 0.19999C99.9882 0.345533 100.246 0.641884 100.387 0.997998C100.627 1.60471 100.493 18.9011 100.493 20.7092V81.5215L100.495 98.7691C100.497 101.728 100.509 104.689 100.495 107.648C100.489 108.648 100.285 109.155 99.2962 109.509C98.3323 109.586 97.0625 109.553 96.0779 109.552L90.8283 109.549L74.21 109.549L44.1924 109.55C39.1255 109.551 34.0591 109.556 28.9918 109.551C28.4478 109.632 27.2964 109.237 27.2397 108.55C27.0835 106.664 27.1545 104.27 27.1566 102.4L27.1585 87.5392L27.1579 18.775L27.1572 7.04839L27.15 3.45325C27.1466 2.08826 26.7895 0.477423 28.3995 0.054459ZM29.5564 107.079L45.3106 107.094L73.6428 107.093L89.9019 107.092L94.8522 107.097C95.8394 107.101 97.0251 107.137 97.9976 107.08L98.0818 106.996L98.0805 106.83L98.0758 2.50614C92.4468 2.56886 86.7344 2.51228 81.0967 2.51175L48.604 2.51041L35.2446 2.51195L31.6658 2.5205C31.113 2.5223 30.0827 2.56445 29.5782 2.47054L29.5677 76.3668L29.5682 96.6971C29.5683 99.9795 29.6695 103.846 29.5564 107.079Z" fill="#E5E8FA"/>
<path d="M36.5834 9.20363C37.7022 9.13543 39.2009 9.17624 40.3492 9.17718L46.8789 9.17938L67.4368 9.17951L82.7293 9.17858L87.5707 9.17477C88.4424 9.17437 89.3255 9.16241 90.2059 9.20817C90.7175 9.23476 91.1844 9.46935 91.4897 9.88182C91.6092 10.0433 91.6867 11.0461 91.6867 11.2795C91.6934 15.1107 91.6894 18.9518 91.6887 22.7824L91.6907 45.5183L91.6861 72.6088C91.6847 76.9413 91.6901 81.2837 91.6961 85.6175C91.6961 85.9575 91.6567 86.6375 91.5184 86.9334C91.3006 87.3997 90.9433 87.5666 90.4924 87.7296C88.24 87.8499 85.1313 87.759 82.8255 87.759L68.3152 87.7584H47.3624C43.9817 87.7584 40.5914 87.7604 37.2103 87.7657C36.8192 87.7664 36.3842 87.733 36.045 87.5419C35.8559 87.4357 35.5693 87.2487 35.516 87.0276C35.2659 85.9922 35.3419 84.7211 35.342 83.647L35.3425 79.7922L35.3456 66.4836L35.345 28.3359C35.3466 22.616 35.3522 16.896 35.3356 11.1764C35.3327 10.1773 35.4959 9.46026 36.5834 9.20363ZM37.7575 39.4686C38.8925 37.0225 40.241 33.5588 42.9676 32.5315C44.5566 31.9328 45.7674 32.5329 46.8515 33.69C48.9884 33.2058 50.6877 33.2138 52.2382 34.9902C53.7931 34.6871 54.795 34.7327 56.1706 35.6242C57.9644 36.7868 58.3406 39.3044 57.7887 41.2316C57.1234 43.5551 55.8312 45.7261 54.8542 47.9327C54.404 48.9111 53.5003 51.1921 53.0487 51.9449C55.7364 53.5996 55.3169 58.4998 53.7328 60.7971C52.5089 62.5719 51.5462 63.4249 50.0166 64.8611C47.9968 66.7507 45.9604 68.6231 43.9077 70.4767C42.5408 71.7345 41.2696 73.0764 39.9413 74.3716C39.2163 75.079 38.7415 75.2887 37.7868 74.8986L37.7925 81.607C37.7925 82.7459 37.8342 84.1653 37.7692 85.2735C40.5018 85.2956 43.7831 85.186 46.4466 85.3096C46.5001 83.3665 49.4775 78.7989 50.72 77.2352C51.7483 75.9447 52.8709 74.733 54.0787 73.6088C56.3149 71.4933 58.6204 70.0859 61.3935 68.8201C69.5482 65.0969 78.4082 64.0956 87.2828 64.4483C87.9581 64.4756 88.578 64.4723 89.248 64.6299C89.1939 62.5025 89.2353 60.2588 89.2299 58.1228C89.2246 55.8122 89.2006 53.3954 89.2887 51.096C89.3562 50.4688 89.2961 49.4687 89.2954 48.812C89.2947 48.153 89.3382 47.3277 89.2901 46.6891C89.2059 44.6873 89.2326 42.644 89.2333 40.6362L89.232 32.2632C89.2306 25.4557 89.1531 18.4932 89.2386 11.697C85.0585 11.5613 80.3326 11.6664 76.1164 11.6664L51.558 11.6666L42.1406 11.6689C41.1561 11.6696 38.6281 11.7439 37.7868 11.6652L37.7934 29.0265C37.7937 32.4673 37.84 36.0399 37.7575 39.4686ZM74.029 62.244C81.4421 62.1297 87.361 56.0306 87.2521 48.6174C87.1425 41.2041 81.0473 35.2816 73.6335 35.3861C66.2137 35.4908 60.285 41.593 60.3943 49.0128C60.5035 56.4327 66.6092 62.3575 74.029 62.244ZM45.5568 58.1778C45.8912 58.1633 47.1326 58.0076 47.332 57.9116C48.3459 57.4236 50.1788 58.3876 48.9246 59.2275C46.9583 60.5443 42.1062 60.3734 40.6211 58.2953C39.5169 56.7996 39.7711 54.5194 41.3878 53.5114C42.6704 52.6647 44.3166 52.2771 45.796 51.9303C46.3174 51.8115 46.7539 51.8895 47.2476 51.7083C47.0233 51.5147 46.0088 51.7138 46.0484 50.9021C46.1156 50.0623 46.5801 49.2118 46.8959 48.4363C48.3281 44.9187 50.4221 41.3397 50.5558 37.4547C50.6346 35.1645 49.6182 35.0016 47.7059 35.1957C47.7733 36.0244 47.7193 37.0486 47.4653 37.8466C46.3485 41.3554 44.7487 44.6829 43.7731 48.2475C43.4488 49.4323 42.9894 50.8574 41.4685 50.0983C41.2956 50.0146 41.2071 49.6036 41.2247 49.4238C41.6539 47.4858 42.3929 45.5012 43.0567 43.6184C43.8848 41.2695 45.1105 38.9259 45.5563 36.4666C45.7354 35.479 45.1475 34.2529 44.1113 34.0214C40.7158 35.4143 38.7041 42.7428 37.8488 46.1143C37.7326 46.5723 37.7847 48.1906 37.7854 48.7628L37.792 53.019L37.7945 66.7401C37.7945 68.8401 37.8959 71.9549 37.7584 73.9528L37.833 73.8553C38.8049 72.5981 40.8814 70.7285 42.0728 69.6357C43.5123 68.2971 44.9648 66.9718 46.43 65.6606C49.3347 63.0996 53.4418 59.9524 52.7771 55.6229C52.6995 55.1178 52.3549 53.6856 51.9152 53.5271C49.99 52.8331 47.0466 53.5379 45.1227 54.0006C43.6403 54.3571 41.7624 55.0864 42.2999 56.8134C42.6949 58.1713 44.3563 58.1583 45.5568 58.1778ZM89.1064 50.394C88.2667 58.5337 81.1963 64.5879 73.0244 64.1644C64.8522 63.7415 58.4451 56.989 58.4507 48.8061C58.4564 40.6231 64.8729 33.8797 73.0457 33.4677C81.2183 33.0557 88.2801 39.1197 89.109 47.2607C89.2146 48.3024 89.2139 49.3524 89.1064 50.394ZM50.9463 51.4688L50.9728 51.3873C51.7411 49.11 53.1977 46.6665 54.1453 44.4228C55.0204 42.3506 56.5313 40.1005 55.4342 37.7633C54.9742 36.7879 54.1629 36.5034 53.156 36.5695C53.0111 36.6521 52.7915 36.7223 52.7762 36.9038C52.6832 37.9865 52.669 39.1232 52.4089 40.184C51.7384 42.9188 50.5285 45.452 49.4052 48.0202C48.8872 49.2047 48.4948 50.8816 47.5003 51.6886C48.5361 51.493 48.986 51.4307 50.0327 51.4261L50.9463 51.4688ZM89.2413 85.2942C89.1945 80.2851 89.2593 71.5494 89.2239 66.1609C89.1999 66.1282 89.1758 66.0948 89.1525 66.0621L89.1084 66.0634C87.2067 66.2264 85.1861 66.1689 83.2683 66.187C81.5329 66.2197 79.7982 66.2985 78.0669 66.4248C71.8921 66.8757 64.3364 68.9657 59.0899 72.2956C54.7605 75.0442 50.5839 80.4314 48.7506 85.1987L48.8075 85.2849L48.8965 85.2976L73.8947 85.2849L84.0124 85.2855C85.7037 85.2862 87.56 85.2495 89.2413 85.2942Z" fill="#E5E8FA"/>
<path d="M89.1061 50.394C88.2664 58.5337 81.196 64.5879 73.0241 64.1644C64.8519 63.7415 58.4448 56.989 58.4504 48.8061C58.4561 40.6231 64.8726 33.8797 73.0454 33.4677C81.218 33.0557 88.2798 39.1197 89.1087 47.2607C89.2143 48.3024 89.2136 49.3524 89.1061 50.394ZM74.0287 62.244C81.4418 62.1297 87.3607 56.0306 87.2518 48.6174C87.1422 41.2041 81.047 35.2816 73.6332 35.3861C66.2134 35.4908 60.2847 41.593 60.394 49.0128C60.5032 56.4327 66.6089 62.3575 74.0287 62.244Z" fill="#E5E8FA"/>
<path d="M70.6604 44.9209C73.1152 44.9587 70.8762 49.2415 71.7312 50.4935C72.3437 51.3898 74.1886 50.2498 74.9414 50.5499C76.1605 51.0364 75.1792 51.8255 74.4251 52.1572C73.3383 52.6195 72.152 52.805 70.9777 52.3933C68.4628 51.5017 69.5816 48.6316 69.6605 46.6799C69.6972 45.7733 69.8254 45.2807 70.6604 44.9209Z" fill="#E5E8FA"/>
<path d="M80.494 48.7348C81.0251 48.7041 81.836 48.8412 81.7992 49.5489C81.6222 52.9535 80.0465 56.6494 76.2718 57.1197C75.8209 57.137 75.2585 57.0648 74.9799 56.6998C74.4135 55.9575 76.2197 55.3491 76.5777 55.1854C78.251 54.4202 78.943 52.8771 79.3839 51.1915C79.6197 50.2909 79.5742 49.1562 80.494 48.7348Z" fill="#E5E8FA"/>
<path d="M66.5188 44.9285C67.8628 44.7565 68.1934 46.0185 68.4052 47.0761C68.5802 47.9505 68.9676 48.8554 68.0077 49.3242C67.8414 49.3282 67.5983 49.3357 67.4393 49.2945C67.2115 49.2382 67.0171 49.0925 66.8982 48.8905C66.6471 48.4679 65.7781 46.0387 65.9217 45.4788C65.9931 45.2003 66.2797 45.0599 66.5188 44.9285Z" fill="#E5E8FA"/>
<path d="M76.8257 42.3852C77.4536 42.3384 77.9319 42.5333 78.1784 43.1405C78.5437 44.0373 79.1603 45.4634 78.0815 46.0439C77.475 46.1026 77.0729 45.9301 76.7723 45.3522C76.433 44.6981 76.1264 43.6272 76.2626 42.894C76.31 42.6401 76.6193 42.4894 76.8257 42.3852Z" fill="#E5E8FA"/>
<path d="M89.1089 47.2607L89.2117 47.4989C89.2512 47.415 89.2739 46.8328 89.2899 46.6891C89.338 47.3277 89.2946 48.153 89.2952 48.812C89.2959 49.4686 89.356 50.4688 89.2886 51.096C89.2545 50.7912 89.2886 50.4164 89.2144 50.1429L89.1062 50.394C89.2137 49.3523 89.2144 48.3024 89.1089 47.2607Z" fill="#E5E8FA"/>
<path d="M64.1719 90.9833C67.9291 90.821 71.1099 93.728 71.2863 97.4846C71.4619 101.241 68.567 104.433 64.8107 104.623C61.035 104.814 57.8231 101.9 57.6463 98.1232C57.4694 94.3472 60.395 91.1463 64.1719 90.9833ZM65.2446 102.663C67.9364 102.232 69.7633 99.6929 69.3178 97.0037C68.8729 94.3145 66.3259 92.4996 63.6384 92.9578C60.9696 93.4127 59.1701 95.939 59.6121 98.6102C60.0541 101.281 62.5715 103.093 65.2446 102.663Z" fill="#E5E8FA"/>
<path d="M62.5178 4.71338C63.9358 4.59401 64.7233 5.87264 63.1895 6.57982C61.5594 6.6917 60.9902 5.3074 62.5178 4.71338Z" fill="#E5E8FA"/>
<path d="M11.0004 36.3837C11.0813 36.3753 11.162 36.3692 11.2435 36.3688C12.9486 36.3592 22.693 38.5522 23.6122 39.5453C23.7401 39.6834 23.7917 39.8534 23.7603 40.0396C23.7259 40.2438 23.5748 40.4091 23.4056 40.5174C23.1977 40.6504 22.9667 40.7224 22.7197 40.6887C21.604 40.5366 20.5126 40.0482 19.4286 39.7528C17.3359 39.177 15.2206 38.6864 13.0881 38.2823C13.8366 39.0603 14.5375 40.137 15.2409 40.9812C16.1038 42.017 16.8715 43.1277 17.7189 44.1819C19.5018 46.3999 16.2912 46.651 14.7059 46.9698C10.7806 47.7592 6.88877 48.7346 3.0609 49.9522C5.18739 50.627 7.29877 51.3133 9.4519 51.9011C11.1992 52.3781 17.4262 53.5776 18.5399 54.3547C18.7676 54.5135 18.8983 54.6795 18.9332 54.9632C18.9619 55.1966 18.9374 55.3482 18.8314 55.5598C18.5459 56.1293 18.1392 56.6596 17.79 57.1939L15.6386 60.4862C14.854 61.7082 14.0778 62.9353 13.3098 64.1677C12.872 64.8604 12.3479 65.7441 11.8455 66.3706C12.3262 66.2464 12.7366 66.1689 13.2262 66.0801C15.5817 65.6593 17.9783 65.1676 20.3577 64.9432C20.7757 64.9044 21.529 65.2812 21.4377 65.8436C21.2772 66.0767 21.0633 66.231 20.7897 66.3012C19.5048 66.6305 18.0772 66.8529 16.7694 67.1014L13.1798 67.7821C12.3804 67.9317 11.6095 68.0987 10.7814 68.1661C10.416 68.3318 9.07517 67.8996 9.17169 67.3706C9.53907 66.1389 10.6201 64.7421 11.2851 63.6447C12.9585 60.884 14.8812 58.2041 16.5007 55.4258C15.2967 55.1608 14.1033 54.7925 12.9035 54.4976C10.1744 53.8271 7.47004 53.1389 4.77792 52.3278C3.52424 51.9501 2.03939 51.5675 0.905206 50.9172C0.569205 50.7246 0.0798239 50.3304 0.0125595 49.9197C-0.0140858 49.757 -0.00279718 49.623 0.0900972 49.4827C1.00514 48.1014 13.5783 45.3541 15.8355 44.9526C14.8725 43.7412 10.5736 38.4736 10.2094 37.5354C10.1368 37.3483 10.1537 37.1193 10.2444 36.9402C10.3957 36.6418 10.7033 36.4957 11.0004 36.3837Z" fill="#E5E8FA"/>
<path d="M114.748 34.4367C115.947 34.3788 116.497 35.2344 115.733 36.2165C113.674 38.8614 111.422 41.5099 109.183 44.0047C110.547 44.2021 112.064 44.5488 113.424 44.8273C116.585 45.4747 119.84 46.0496 122.851 47.235C124.162 47.7516 124.012 48.6808 122.798 49.1063C122.065 49.3629 121.293 49.5269 120.539 49.7143L117.386 50.5091C115.152 51.0628 113.36 51.6047 111.174 52.2362C112.988 54.7581 115.158 57.131 117.145 59.5262C117.455 59.9008 117.721 60.1638 117.911 60.6307C117.916 61.7463 116.552 61.6461 115.805 61.5773C113.942 61.4036 112.072 61.3081 110.201 61.2901C109.404 61.2787 106.73 61.4056 106.453 61.0877C104.929 59.3399 110.773 59.6106 111.16 59.6096C112.316 59.5902 113.472 59.6196 114.625 59.6974C113.619 58.5672 108.894 53.0459 108.622 51.9698C108.565 51.7449 108.662 51.4914 108.791 51.3088C108.909 51.1407 109.067 51.0154 109.253 50.9292C109.979 50.5938 110.879 50.4564 111.652 50.2377C114.412 49.4564 117.186 48.671 120 48.1115C119.314 47.8483 118.178 47.5995 117.431 47.4214C115.448 46.9605 113.454 46.5423 111.452 46.1673C106.916 45.2937 104.757 45.6648 108.986 41.2343C110.05 40.1189 111.597 38.281 112.568 37.0559C110.829 37.8158 108.904 38.3383 107.116 38.986C106.667 39.1487 106.2 39.2918 105.737 39.3982C104.874 39.5969 103.717 39.3419 104.357 38.2321C104.488 38.0142 106.209 37.4909 106.528 37.3849C108.28 36.8117 110.021 36.2037 111.749 35.5611C112.546 35.2611 113.991 34.6071 114.748 34.4367Z" fill="#E5E8FA"/>
</svg>
